<svg xmlns="http://www.w3.org/2000/svg" enable-background="new 0 0 512 512" viewBox="0 0 512 512" id="info"><path d="M256,0.001C114.842,0.001,0.001,114.842,0.001,256S114.842,511.999,256,511.999S511.999,397.158,511.999,256
	S397.158,0.001,256,0.001z M256,479.999C132.486,479.999,32.001,379.514,32.001,256S132.486,32.001,256,32.001
	S479.999,132.486,479.999,256S379.514,479.999,256,479.999z M308.001,389.648c0,8.837-7.163,16-16,16h-72.002
	c-8.837,0-16-7.163-16-16s7.163-16,16-16h19.985l-0.535-181h-19.449c-8.837,0-16-7.163-16-16s7.163-16,16-16H255.4
	c8.818,0,15.974,7.135,16,15.952l0.583,197.048h20.017C300.838,373.648,308.001,380.812,308.001,389.648z M239.587,122.351
	c0-8.837,7.163-16,16-16h0.825c8.837,0,16,7.163,16,16s-7.163,16-16,16h-0.825C246.75,138.351,239.587,131.188,239.587,122.351z"></path></svg>