<svg xmlns="http://www.w3.org/2000/svg" viewBox="0 0 1024 1024" id="back"><path d="m548.3 922-44.5-44.5-106.2-106.2-129-129-110.9-110.9c-18-18-35.7-36.2-54-54l-.8-.8v70.7l44.5-44.5 106.2-106.2 129-129 110.9-110.9c18-18 36.2-35.8 54-54l.8-.8c9.1-9.1 14.6-22.5 14.6-35.4 0-12.3-5.4-26.9-14.6-35.4-9.5-8.7-22-15.2-35.4-14.6-13.3.6-25.8 5.1-35.4 14.6L433 75.6 326.8 181.8l-129 129L86.9 421.7c-18 18-36.2 35.8-54 54l-.8.8c-19.1 19.1-19.1 51.6 0 70.7 14.9 15 29.8 29.8 44.6 44.7l106.2 106.2 129 129L422.8 938c18 18 35.8 36.2 54 54l.8.8c9.1 9.1 22.5 14.6 35.4 14.6 12.3 0 26.9-5.4 35.4-14.6 8.7-9.5 15.2-22 14.6-35.4-.7-13.3-5.1-25.8-14.7-35.4z"></path><path d="M67.3 562h853.2c11.5 0 23.1.1 34.6 0h1.5c12.8 0 26.3-5.6 35.4-14.6 8.7-8.7 15.2-22.9 14.6-35.4-.6-12.9-4.8-26.3-14.6-35.4-9.8-9-21.8-14.6-35.4-14.6H103.4c-11.5 0-23.1-.1-34.6 0h-1.5c-12.8 0-26.3 5.6-35.4 14.6-8.7 8.7-15.2 22.9-14.6 35.4.6 12.9 4.8 26.3 14.6 35.4 9.9 8.9 21.9 14.6 35.4 14.6z"></path></svg>