<svg version="1.0" xmlns="http://www.w3.org/2000/svg"
 width="24" height="24" viewBox="0 0 512.000000 512.000000"
 preserveAspectRatio="xMidYMid meet">
<g transform="translate(0.000000,512.000000) scale(0.100000,-0.100000)" stroke="none">
<path d="M1750 5025 c-132 -29 -235 -80 -361 -176 -44 -33 -96 -66 -117 -73
-139 -49 -250 -154 -302 -285 -58 -149 -48 -277 35 -449 30 -63 55 -115 55
-118 0 -2 -19 -4 -42 -4 -82 -1 -169 -62 -202 -142 -20 -48 -20 -148 0 -196
38 -92 119 -141 232 -142 l72 0 0 -58 c0 -85 33 -204 86 -310 54 -107 159
-227 256 -293 l58 -40 0 -93 0 -93 -497 -83 c-274 -45 -525 -91 -558 -101
-175 -54 -324 -208 -370 -384 -13 -51 -15 -184 -15 -962 0 -890 0 -903 20
-923 20 -20 33 -20 2427 -20 2385 0 2408 0 2441 20 18 11 41 34 52 52 19 32
20 52 20 888 0 836 -1 856 -20 888 -11 18 -34 41 -52 52 -31 19 -51 20 -300
20 l-268 0 0 153 c0 171 -10 206 -71 264 -67 64 -61 63 -569 63 -492 0 -503
-1 -556 -51 -21 -20 -21 -19 -452 52 l-432 72 0 93 0 93 58 40 c67 46 166 146
211 214 75 111 131 277 131 389 l0 58 73 0 c153 1 247 93 247 242 -1 135 -98
238 -225 238 -25 0 -45 2 -45 4 0 2 13 32 29 67 48 108 64 194 58 316 -5 125
-28 207 -84 302 -46 79 -130 166 -203 213 -70 45 -335 165 -420 190 -87 27
-308 34 -400 13z m325 -170 c33 -9 135 -50 227 -91 141 -64 177 -85 231 -134
68 -63 120 -147 143 -234 19 -70 17 -189 -5 -256 l-17 -55 -57 111 c-31 61
-63 114 -72 118 -47 18 -81 6 -175 -64 -165 -121 -270 -160 -430 -160 -159 0
-266 40 -430 160 -96 71 -135 84 -178 61 -9 -5 -42 -59 -72 -120 -30 -61 -57
-111 -61 -111 -11 0 -59 117 -70 172 -21 106 33 239 126 310 70 53 130 71 223
66 121 -6 210 -56 292 -166 l25 -33 68 46 c37 25 67 48 67 51 0 16 -67 99
-115 141 -52 47 -103 77 -170 103 l-30 12 49 25 c115 59 306 80 431 48z m-510
-856 c117 -57 214 -79 355 -79 181 0 347 52 477 151 l53 39 56 -112 57 -113
-6 -270 c-4 -208 -9 -284 -22 -330 -145 -525 -818 -648 -1132 -207 -100 139
-123 252 -123 605 l0 207 55 110 55 111 48 -36 c25 -20 83 -54 127 -76z m-445
-319 l0 -80 -35 0 c-54 0 -103 24 -111 54 -16 64 26 105 109 106 l37 0 0 -80z
m1705 66 c37 -16 52 -48 41 -92 -8 -30 -57 -54 -111 -54 l-35 0 0 80 0 80 35
0 c20 0 51 -6 70 -14z m-1065 -1095 c89 -20 293 -12 383 15 15 5 17 -3 17 -68
l0 -73 -120 -120 -120 -120 -120 120 -120 120 0 73 c0 65 2 73 18 68 9 -3 37
-10 62 -15z m-147 -309 l47 -48 -30 -89 c-44 -130 -42 -140 42 -267 l71 -109
-71 -180 c-40 -99 -72 -194 -72 -212 0 -31 218 -994 241 -1065 12 -37 35 -52
79 -52 44 0 67 15 79 52 23 71 241 1034 241 1065 0 18 -32 113 -72 212 l-71
180 71 109 c84 127 86 137 42 267 l-30 90 47 46 48 47 423 -70 422 -71 0 -124
0 -123 -267 0 c-250 0 -270 -1 -301 -20 -18 -11 -41 -34 -52 -52 -19 -32 -20
-52 -20 -860 l0 -828 -720 0 -720 0 0 680 0 680 -80 0 -80 0 0 -680 0 -680
-320 0 -320 0 0 783 c1 430 5 812 9 849 12 89 56 181 117 241 89 88 100 91
672 188 285 48 519 87 522 88 3 1 27 -21 53 -47z m2571 -36 c45 -19 56 -55 56
-193 l0 -113 -251 2 -251 3 -20 50 c-36 93 -133 208 -213 253 -32 18 635 17
679 -2z m-806 -125 c23 -11 58 -36 78 -54 39 -33 94 -103 94 -119 0 -4 -61 -8
-135 -8 l-135 0 0 109 0 110 28 -8 c15 -5 46 -18 70 -30z m-1537 -66 c31 -28
47 -35 79 -35 32 0 48 7 79 35 21 19 41 35 44 35 3 0 8 -14 12 -31 6 -26 -1
-43 -49 -115 -50 -74 -60 -84 -86 -84 -26 0 -36 10 -86 84 -48 72 -55 89 -49
115 4 17 9 31 12 31 3 0 23 -16 44 -35z m3039 -382 c-1 -218 -30 -314 -124
-409 -106 -106 -182 -124 -528 -124 l-228 0 0 140 c0 192 16 180 -240 180
-256 0 -240 12 -240 -180 l0 -140 -227 0 c-347 0 -423 18 -529 124 -94 95
-123 191 -124 409 l0 107 1120 0 1120 0 0 -107z m-2874 -138 l64 -160 -72
-317 c-40 -175 -75 -318 -78 -318 -3 0 -38 143 -78 318 l-72 317 56 140 c31
77 60 150 65 163 6 16 16 22 30 20 17 -2 33 -34 85 -163z m1834 -430 c0 -218
-8 -259 -54 -271 -44 -11 -76 4 -92 41 -10 26 -14 83 -14 230 l0 195 80 0 80
0 0 -195z m-1063 -64 c115 -58 140 -61 455 -61 l288 0 0 -72 c1 -154 93 -248
242 -248 74 0 129 23 175 71 46 49 63 97 63 179 l0 70 288 0 c236 0 298 3 343
16 76 23 163 68 209 110 l40 36 0 -321 0 -321 -1120 0 -1120 0 0 321 0 321 40
-36 c22 -19 65 -49 97 -65z m2103 -781 l0 -80 -1120 0 -1120 0 0 80 0 80 1120
0 1120 0 0 -80z"/>
</g>
</svg>
