<svg xmlns="http://www.w3.org/2000/svg" viewBox="0 0 25 25" id="Edit"><path fill-rule="evenodd" d="M12.5 0A12.5 12.5 0 0 0 0 12.5 12.5 12.5 0 0 0 12.5 25 12.5 12.5 0 0 0 25 12.5 12.5 12.5 0 0 0 12.5 0zm6.863 5.656-1.416 4.25-6.459 6.426-.008.01h.004l-1.336 1.338a1.098 1.098 0 0 1-.779.318c-.283 0-.566-.106-.78-.318l-1.27-1.272a1.111 1.111 0 0 1 0-1.558l1.337-1.336.008.01 6.451-6.452 4.248-1.416zm-1.582 1.582-1.783.594 1.19 1.19.593-1.784zm-2.603 1.188-5.46 5.457 1.415 1.392 5.459-5.435-1.414-1.414zM9.006 14.58l-.979.979c-.046.045-.046.098 0 .144l1.27 1.272c.046.046.098.046.144 0l.989-.99-1.424-1.405z" fill="#E42527" class="color000000 svgShape"></path></svg>