<svg version="1.0" xmlns="http://www.w3.org/2000/svg"
 width="512.000000pt" height="512.000000pt" viewBox="0 0 512.000000 512.000000"
 preserveAspectRatio="xMidYMid meet">
<g transform="translate(0.000000,512.000000) scale(0.100000,-0.100000)" stroke="none">
<path d="M1705 5103 c-485 -103 -829 -507 -852 -999 -12 -263 59 -494 218
-703 385 -508 1142 -561 1598 -112 223 219 333 500 318 815 -23 496 -370 900
-859 1000 -99 20 -326 20 -423 -1z m385 -329 c36 -8 107 -35 159 -60 80 -39
108 -60 185 -138 103 -103 145 -168 189 -293 29 -82 31 -98 32 -223 0 -114 -4
-146 -23 -210 -66 -209 -206 -374 -395 -464 -112 -54 -185 -70 -317 -70 -132
0 -205 16 -317 70 -189 90 -329 255 -395 464 -19 64 -23 96 -23 210 1 125 3
141 32 223 44 125 86 190 188 292 63 64 111 101 160 127 173 90 341 113 525
72z"/>
<path d="M811 2545 c-353 -77 -637 -321 -754 -649 -54 -153 -57 -187 -57 -689
0 -443 1 -463 20 -495 11 -18 34 -41 52 -52 32 -20 53 -20 994 -20 l961 0 33
23 c57 38 75 71 75 137 0 66 -18 99 -75 138 l-33 22 -853 0 -854 0 0 278 c0
152 5 318 10 369 26 249 172 457 396 563 141 66 88 63 1179 69 1109 7 1018 0
1063 80 42 74 18 177 -51 220 -34 21 -35 21 -1038 20 -817 0 -1016 -3 -1068
-14z"/>
<path d="M3443 2222 c-97 -34 -186 -122 -224 -222 -15 -39 -19 -76 -19 -169
l0 -119 -182 -4 c-174 -3 -186 -4 -240 -30 -76 -35 -138 -95 -179 -170 l-34
-63 0 -590 0 -590 27 -55 c35 -71 107 -143 178 -178 l55 -27 1015 0 1015 0 55
27 c71 35 143 107 178 178 l27 55 0 590 0 590 -34 63 c-41 75 -103 135 -179
170 -54 26 -66 27 -239 30 l-181 4 -4 131 c-3 119 -6 137 -30 187 -35 71 -107
143 -178 178 l-55 27 -360 2 c-325 3 -365 1 -412 -15z m688 -321 c21 -17 24
-29 28 -105 l3 -86 -322 0 -322 0 3 86 c6 130 -9 124 319 124 249 0 269 -1
291 -19z m528 -525 c-10 -10 -807 -386 -818 -386 -11 0 -810 376 -820 386 -2
2 366 4 819 4 453 0 821 -2 819 -4z m-1311 -525 c394 -188 448 -211 493 -211
44 0 98 23 492 211 243 116 448 213 455 216 10 4 12 -64 10 -352 l-3 -357 -24
-19 c-22 -18 -52 -19 -931 -19 -879 0 -909 1 -931 19 l-24 19 -3 357 c-2 288
0 356 10 352 7 -3 212 -100 456 -216z"/>
</g>
</svg>
