<svg version="1.0" xmlns="http://www.w3.org/2000/svg"
 width="512.000000pt" height="512.000000pt" viewBox="0 0 512.000000 512.000000"
 preserveAspectRatio="xMidYMid meet">
<g transform="translate(0.000000,512.000000) scale(0.100000,-0.100000)" stroke="none">
<path d="M1480 4786 c-283 -63 -505 -253 -600 -513 -98 -270 -72 -551 72 -773
54 -83 175 -204 258 -258 223 -145 525 -172 778 -71 333 132 554 480 528 829
-30 404 -285 707 -658 784 -91 19 -297 20 -378 2z m317 -161 c200 -37 385
-179 477 -365 98 -199 98 -403 1 -605 -197 -408 -763 -500 -1085 -176 -257
259 -266 671 -19 935 171 183 388 256 626 211z"/>
<path d="M2406 3175 c-94 -33 -152 -115 -162 -226 l-7 -66 -78 34 c-142 62
-254 85 -434 90 -119 4 -183 1 -252 -11 -479 -83 -886 -430 -1028 -876 -55
-173 -72 -376 -36 -421 l19 -24 906 -3 905 -2 3 -588 c3 -581 3 -587 25 -628
29 -53 93 -110 140 -124 27 -8 347 -10 1105 -8 l1066 3 43 30 c24 17 57 50 74
74 l30 43 3 1266 2 1266 -25 52 c-28 58 -73 97 -136 119 -60 22 -2103 22
-2163 0z m2129 -180 l25 -24 0 -1216 c0 -774 -4 -1223 -10 -1235 -5 -10 -24
-23 -41 -29 -23 -8 -325 -11 -1021 -11 -1077 0 -1046 -2 -1068 55 -7 18 -9
442 -8 1232 l3 1205 28 24 28 24 1020 0 1020 0 24 -25z m-2594 -184 c91 -25
131 -40 227 -88 l72 -37 0 -423 0 -423 -839 0 -839 0 5 43 c11 83 52 225 87
301 147 320 451 558 811 636 121 27 362 22 476 -9z"/>
<path d="M3825 2509 c-271 -142 -456 -240 -490 -257 l-40 -20 -75 105 c-83
117 -101 133 -145 133 -56 0 -100 -65 -78 -113 15 -32 201 -290 220 -304 41
-32 79 -17 412 158 179 94 332 178 339 187 18 23 15 86 -5 111 -30 36 -71 36
-138 0z"/>
<path d="M2713 1660 c-35 -14 -56 -55 -49 -95 13 -69 -34 -65 826 -65 l777 0
21 23 c28 29 29 86 3 118 l-19 24 -769 2 c-432 1 -778 -2 -790 -7z"/>
<path d="M2688 1240 c-26 -27 -30 -36 -25 -68 13 -77 -44 -72 826 -72 l778 0
21 23 c28 29 29 86 3 118 l-19 24 -777 3 -776 2 -31 -30z"/>
</g>
</svg>
